<svg xmlns="http://www.w3.org/2000/svg" width="29" height="32" viewBox="0 0 29 32"><path fill="#C7D4D9" d="M9.7 22.3C8 20.7 7 18.5 7 16s1-4.7 2.6-6.3c1.4-1.4 1.4-3.6 0-5s-3.6-1.4-5 0C1.8 7.6 0 11.6 0 16s1.8 8.4 4.7 11.3c1.4 1.4 3.6 1.4 5 0 1.3-1.4 1.3-3.6 0-5zm0-12.6C11.3 8 13.5 7 16 7s4.7 1 6.3 2.6c1.4 1.4 3.6 1.4 5 0s1.4-3.6 0-5C24.4 1.8 20.4 0 16 0S7.6 1.8 4.7 4.7c-1.4 1.4-1.4 3.6 0 5 1.4 1.3 3.6 1.3 5 0zm12.6 12.6C20.7 24 18.5 25 16 25s-4.7-1-6.3-2.6c-1.4-1.4-3.6-1.4-5 0s-1.4 3.6 0 5C7.6 30.2 11.6 32 16 32s8.4-1.8 11.3-4.7c1.4-1.4 1.4-3.6 0-5-1.4-1.3-3.6-1.3-5 0z"></path><circle fill="#98AAB2" cx="7.2" cy="7.2" r="3.5"></circle><circle fill="#98AAB2" cx="7.2" cy="24.8" r="3.5"></circle></svg>